<svg width="155" height="41" viewBox="0 0 155 41" fill="none" xmlns="http://www.w3.org/2000/svg">
<path d="M60.4326 23.412C60.4326 25.1221 60.213 26.3503 59.7737 27.0967C59.3344 27.843 58.6662 28.3107 57.7689 28.4997C56.8811 28.6886 55.4604 28.7831 53.5071 28.7831H46.6797V5.82471H58.2456V9.807H52.5958V13.6901H53.5071C55.3296 13.6901 56.7082 13.7987 57.6428 14.016C58.5774 14.2333 59.2737 14.7152 59.7316 15.4616C60.199 16.1985 60.4326 17.3606 60.4326 18.9478V23.412ZM54.5165 22.7176V19.4013C54.5165 18.4377 54.4183 17.8519 54.2221 17.644C54.0351 17.4362 53.4931 17.3181 52.5958 17.2897V24.8292C53.3435 24.8292 53.8482 24.7347 54.1099 24.5457C54.3809 24.3473 54.5165 23.7379 54.5165 22.7176Z" fill="white"/>
<path d="M67.6439 17.2614H62.3306V16.0001C62.3306 14.5451 62.4942 13.4255 62.8213 12.6414C63.1577 11.8477 63.826 11.1486 64.826 10.5439C65.8261 9.93927 67.1252 9.63694 68.7234 9.63694C70.6394 9.63694 72.0833 9.98178 73.0554 10.6715C74.0274 11.3517 74.6115 12.1926 74.8078 13.1941C75.004 14.1861 75.1022 16.2363 75.1022 19.3447V28.7831H69.5926V27.1108C69.2468 27.7816 68.7982 28.2871 68.2467 28.6272C67.7047 28.9579 67.0551 29.1232 66.2981 29.1232C65.3074 29.1232 64.3961 28.8445 63.5643 28.2871C62.7418 27.7202 62.3306 26.4873 62.3306 24.5882V23.0435C62.3306 21.6358 62.5502 20.6768 62.9895 20.1666C63.4288 19.6564 64.5176 19.0612 66.256 18.381C68.1159 17.644 69.1113 17.148 69.2421 16.8929C69.373 16.6378 69.4384 16.1182 69.4384 15.334C69.4384 14.3514 69.3636 13.7137 69.2141 13.4208C69.0739 13.1185 68.8355 12.9673 68.4991 12.9673C68.1159 12.9673 67.8776 13.0949 67.7841 13.35C67.6906 13.5956 67.6439 14.2428 67.6439 15.2915V17.2614ZM69.4384 19.8407C68.5318 20.5115 68.0037 21.0736 67.8542 21.5271C67.714 21.9806 67.6439 22.6325 67.6439 23.4828C67.6439 24.456 67.7047 25.0843 67.8262 25.3677C67.957 25.6511 68.2094 25.7929 68.5832 25.7929C68.9384 25.7929 69.1673 25.6842 69.2701 25.4669C69.3823 25.2402 69.4384 24.6544 69.4384 23.7096V19.8407Z" fill="white"/>
<path d="M85.8884 28.7831V13.9168H83.8836V23.412C83.8836 25.1409 83.6874 26.3786 83.2948 27.125C82.9023 27.8619 82.2808 28.3249 81.4302 28.5138C80.5891 28.6934 79.2059 28.7831 77.2805 28.7831H76.3553V25.7078C77.0749 25.6984 77.5703 25.6086 77.8413 25.4386C78.1124 25.259 78.2479 24.6402 78.2479 23.582V9.97706H91.5101V28.7831H85.8884Z" fill="white"/>
<path d="M104.848 9.97706V13.9168H101.609V28.7831H95.9596V13.9168H92.7071V9.97706H104.848Z" fill="white"/>
<path d="M124.606 5.83888V28.7831H119.447V13.2933L117.386 28.7831H113.727L111.554 13.6476V28.7831H106.395V5.83888H114.036C114.26 7.21827 114.498 8.84331 114.751 10.714L115.564 16.5528L116.91 5.83888H124.606Z" fill="white"/>
<path d="M139.865 19.7131H132.533V23.7804C132.533 24.6308 132.593 25.1787 132.715 25.4244C132.836 25.67 133.07 25.7929 133.416 25.7929C133.846 25.7929 134.131 25.6322 134.271 25.311C134.421 24.9803 134.495 24.3473 134.495 23.412V20.9319H139.865V22.3207C139.865 23.4828 139.79 24.3757 139.64 24.9992C139.5 25.6228 139.164 26.2889 138.631 26.9975C138.098 27.7061 137.421 28.2399 136.598 28.5989C135.785 28.9485 134.762 29.1232 133.528 29.1232C132.332 29.1232 131.276 28.9485 130.36 28.5989C129.444 28.2493 128.729 27.7722 128.215 27.1675C127.71 26.5534 127.36 25.8826 127.163 25.1551C126.967 24.4182 126.869 23.3506 126.869 21.9523V16.4678C126.869 14.8238 127.089 13.5295 127.528 12.5847C127.967 11.6304 128.687 10.903 129.687 10.4022C130.687 9.89203 131.836 9.63694 133.136 9.63694C134.724 9.63694 136.033 9.94399 137.061 10.5581C138.098 11.1628 138.823 11.9706 139.234 12.9815C139.654 13.983 139.865 15.3954 139.865 17.2189V19.7131ZM134.187 16.652V15.2773C134.187 14.3042 134.136 13.6759 134.033 13.3925C133.93 13.109 133.72 12.9673 133.402 12.9673C133.009 12.9673 132.766 13.0901 132.673 13.3358C132.579 13.572 132.533 14.2192 132.533 15.2773V16.652H134.187Z" fill="white"/>
<path d="M153.174 9.97706V13.9168H149.936V28.7831H144.286V13.9168H141.034V9.97706H153.174Z" fill="white"/>
<path d="M45.7246 34.9274H49.7858V39.7938H48.9029V35.6635H46.6075V39.7938H45.7246V34.9274Z" fill="white"/>
<path d="M50.8783 34.9274H53.1031C53.461 34.9274 53.7529 34.9774 53.979 35.0773C54.205 35.1773 54.3792 35.3023 54.5016 35.4522C54.624 35.6021 54.7064 35.7657 54.7488 35.9429C54.7959 36.1201 54.8194 36.2837 54.8194 36.4337C54.8194 36.5836 54.7959 36.7472 54.7488 36.9244C54.7064 37.0971 54.624 37.2584 54.5016 37.4083C54.3792 37.5583 54.205 37.6832 53.979 37.7832C53.7529 37.8786 53.461 37.9263 53.1031 37.9263H51.7612V39.7938H50.8783V34.9274ZM51.7612 37.2311H53.0537C53.1526 37.2311 53.2538 37.2175 53.3574 37.1902C53.461 37.1629 53.5552 37.1198 53.6399 37.0607C53.7294 36.9971 53.8 36.9153 53.8518 36.8153C53.9083 36.7108 53.9366 36.5813 53.9366 36.4268C53.9366 36.2678 53.913 36.136 53.8659 36.0315C53.8189 35.927 53.7553 35.8452 53.6752 35.7862C53.5952 35.7226 53.5034 35.6794 53.3998 35.6567C53.2962 35.634 53.1855 35.6226 53.0678 35.6226H51.7612V37.2311Z" fill="white"/>
<path d="M57.7717 35.5067C57.5033 35.5067 57.2702 35.559 57.0725 35.6635C56.8794 35.768 56.7217 35.9089 56.5993 36.0861C56.4768 36.2587 56.385 36.4564 56.3238 36.679C56.2673 36.9017 56.239 37.1289 56.239 37.3606C56.239 37.5923 56.2673 37.8195 56.3238 38.0422C56.385 38.2648 56.4768 38.4647 56.5993 38.642C56.7217 38.8146 56.8794 38.9532 57.0725 39.0577C57.2702 39.1622 57.5033 39.2145 57.7717 39.2145C58.0401 39.2145 58.2708 39.1622 58.4639 39.0577C58.6616 38.9532 58.8217 38.8146 58.9442 38.642C59.0666 38.4647 59.156 38.2648 59.2126 38.0422C59.2738 37.8195 59.3044 37.5923 59.3044 37.3606C59.3044 37.1289 59.2738 36.9017 59.2126 36.679C59.156 36.4564 59.0666 36.2587 58.9442 36.0861C58.8217 35.9089 58.6616 35.768 58.4639 35.6635C58.2708 35.559 58.0401 35.5067 57.7717 35.5067ZM57.7717 34.8115C58.1484 34.8115 58.4851 34.8797 58.7817 35.016C59.0831 35.1523 59.3373 35.3363 59.5445 35.5681C59.7517 35.7998 59.9094 36.0702 60.0177 36.3791C60.1307 36.6881 60.1872 37.0153 60.1872 37.3606C60.1872 37.7105 60.1307 38.0399 60.0177 38.3489C59.9094 38.6579 59.7517 38.9282 59.5445 39.16C59.3373 39.3917 59.0831 39.5757 58.7817 39.712C58.4851 39.8438 58.1484 39.9097 57.7717 39.9097C57.395 39.9097 57.056 39.8438 56.7546 39.712C56.458 39.5757 56.2061 39.3917 55.9989 39.16C55.7917 38.9282 55.6316 38.6579 55.5186 38.3489C55.4103 38.0399 55.3562 37.7105 55.3562 37.3606C55.3562 37.0153 55.4103 36.6881 55.5186 36.3791C55.6316 36.0702 55.7917 35.7998 55.9989 35.5681C56.2061 35.3363 56.458 35.1523 56.7546 35.016C57.056 34.8797 57.395 34.8115 57.7717 34.8115Z" fill="white"/>
<path d="M65.2427 39.7938H61.4428V41.0002H60.5599V39.0577H61.125C61.1626 39.0441 61.1979 39.0282 61.2309 39.01C61.3204 38.96 61.3957 38.8896 61.4569 38.7987C61.5181 38.7033 61.5652 38.5942 61.5982 38.4716C61.6358 38.3443 61.6665 38.2058 61.69 38.0558C61.7088 37.9059 61.7253 37.7695 61.7394 37.6469C61.7583 37.5196 61.7724 37.3947 61.7818 37.272C61.7912 37.1448 61.7983 37.013 61.803 36.8767C61.8124 36.7358 61.8171 36.5745 61.8171 36.3928C61.8218 36.211 61.8242 36.002 61.8242 35.7657C61.8289 35.5294 61.8313 35.25 61.8313 34.9274H65.3062V39.0577H66.1255V41.0002H65.2427V39.7938ZM62.2692 39.0577H64.4234V35.6635H62.6576C62.6482 35.9634 62.6411 36.2292 62.6364 36.4609C62.6364 36.6927 62.6317 36.9085 62.6223 37.1084C62.6176 37.3038 62.6058 37.4946 62.587 37.6809C62.5682 37.8627 62.5399 38.0603 62.5022 38.2739C62.4787 38.4148 62.441 38.5761 62.3892 38.7578C62.3563 38.8623 62.3162 38.9623 62.2692 39.0577Z" fill="white"/>
<path d="M68.1146 34.9274H69.054L70.9963 39.7938H70.0498L69.5766 38.5056H67.5637L67.0905 39.7938H66.1793L68.1146 34.9274ZM67.8038 37.8581H69.3435L68.5878 35.7657H68.5666L67.8038 37.8581Z" fill="white"/>
<path d="M74.3935 38.158L73.6731 37.4697L72.0204 39.7938H70.9185L73.0727 36.8699L71.0598 34.9274H72.1475L74.3935 37.1425V34.9274H75.2764V37.1425L77.5224 34.9274H78.6101L76.5972 36.8699L78.7514 39.7938H77.6495L75.9968 37.4697L75.2764 38.158V39.7938H74.3935V38.158Z" fill="white"/>
<path d="M80.6144 34.9274H81.5537L83.4961 39.7938H82.5496L82.0764 38.5056H80.0635L79.5902 39.7938H78.6791L80.6144 34.9274ZM80.3036 37.8581H81.8433L81.0876 35.7657H81.0664L80.3036 37.8581Z" fill="white"/>
<path d="M85.9986 34.9274H87.2416L88.633 38.7374H88.6472L90.0033 34.9274H91.2322V39.7938H90.3917V36.0384H90.3776L88.9791 39.7938H88.2516L86.8532 36.0384H86.8391V39.7938H85.9986V34.9274Z" fill="white"/>
<path d="M92.3247 34.9274H95.955V35.6635H93.2075V36.938H95.7502V37.6332H93.2075V39.0577H96.0045V39.7938H92.3247V34.9274Z" fill="white"/>
<path d="M96.3285 34.9274H100.411V35.6635H98.8076V39.7938H97.9248V35.6635H96.3285V34.9274Z" fill="white"/>
<path d="M102.38 34.9274H103.319L105.262 39.7938H104.315L103.842 38.5056H101.829L101.356 39.7938H100.445L102.38 34.9274ZM102.069 37.8581H103.609L102.853 35.7657H102.832L102.069 37.8581Z" fill="white"/>
<path d="M105.53 39.085C105.652 39.085 105.756 39.06 105.841 39.01C105.93 38.96 106.005 38.8896 106.067 38.7987C106.128 38.7033 106.175 38.5942 106.208 38.4716C106.246 38.3443 106.276 38.2058 106.3 38.0558C106.319 37.9059 106.335 37.7695 106.349 37.6469C106.368 37.5196 106.382 37.3947 106.392 37.272C106.401 37.1448 106.408 37.013 106.413 36.8767C106.422 36.7358 106.427 36.5745 106.427 36.3928C106.432 36.211 106.434 36.002 106.434 35.7657C106.439 35.5294 106.441 35.25 106.441 34.9274H109.916V39.7938H109.033V35.6635H107.267C107.258 35.9634 107.251 36.2292 107.246 36.4609C107.246 36.6927 107.242 36.9085 107.232 37.1084C107.227 37.3038 107.216 37.4946 107.197 37.6809C107.178 37.8627 107.15 38.0603 107.112 38.2739C107.088 38.4148 107.051 38.5761 106.999 38.7578C106.947 38.935 106.865 39.1032 106.752 39.2622C106.644 39.4167 106.5 39.5484 106.321 39.6575C106.142 39.7666 105.914 39.8211 105.636 39.8211C105.546 39.8211 105.471 39.8188 105.41 39.8143C105.353 39.8097 105.297 39.8029 105.24 39.7938V39.0577C105.297 39.0668 105.346 39.0736 105.389 39.0782C105.431 39.0827 105.478 39.085 105.53 39.085Z" fill="white"/>
<path d="M110.766 39.085C110.888 39.085 110.992 39.06 111.077 39.01C111.166 38.96 111.241 38.8896 111.303 38.7987C111.364 38.7033 111.411 38.5942 111.444 38.4716C111.482 38.3443 111.512 38.2058 111.536 38.0558C111.555 37.9059 111.571 37.7695 111.585 37.6469C111.604 37.5196 111.618 37.3947 111.628 37.272C111.637 37.1448 111.644 37.013 111.649 36.8767C111.658 36.7358 111.663 36.5745 111.663 36.3928C111.668 36.211 111.67 36.002 111.67 35.7657C111.675 35.5294 111.677 35.25 111.677 34.9274H115.152V39.7938H114.269V35.6635H112.503C112.494 35.9634 112.487 36.2292 112.482 36.4609C112.482 36.6927 112.477 36.9085 112.468 37.1084C112.463 37.3038 112.452 37.4946 112.433 37.6809C112.414 37.8627 112.386 38.0603 112.348 38.2739C112.324 38.4148 112.287 38.5761 112.235 38.7578C112.183 38.935 112.101 39.1032 111.988 39.2622C111.879 39.4167 111.736 39.5484 111.557 39.6575C111.378 39.7666 111.15 39.8211 110.872 39.8211C110.782 39.8211 110.707 39.8188 110.646 39.8143C110.589 39.8097 110.533 39.8029 110.476 39.7938V39.0577C110.533 39.0668 110.582 39.0736 110.625 39.0782C110.667 39.0827 110.714 39.085 110.766 39.085Z" fill="white"/>
<path d="M118.396 35.5067C118.128 35.5067 117.895 35.559 117.697 35.6635C117.504 35.768 117.346 35.9089 117.224 36.0861C117.101 36.2587 117.01 36.4564 116.948 36.679C116.892 36.9017 116.864 37.1289 116.864 37.3606C116.864 37.5923 116.892 37.8195 116.948 38.0422C117.01 38.2648 117.101 38.4647 117.224 38.642C117.346 38.8146 117.504 38.9532 117.697 39.0577C117.895 39.1622 118.128 39.2145 118.396 39.2145C118.665 39.2145 118.895 39.1622 119.088 39.0577C119.286 38.9532 119.446 38.8146 119.569 38.642C119.691 38.4647 119.781 38.2648 119.837 38.0422C119.898 37.8195 119.929 37.5923 119.929 37.3606C119.929 37.1289 119.898 36.9017 119.837 36.679C119.781 36.4564 119.691 36.2587 119.569 36.0861C119.446 35.9089 119.286 35.768 119.088 35.6635C118.895 35.559 118.665 35.5067 118.396 35.5067ZM118.396 34.8115C118.773 34.8115 119.11 34.8797 119.406 35.016C119.708 35.1523 119.962 35.3363 120.169 35.5681C120.376 35.7998 120.534 36.0702 120.642 36.3791C120.755 36.6881 120.812 37.0153 120.812 37.3606C120.812 37.7105 120.755 38.0399 120.642 38.3489C120.534 38.6579 120.376 38.9282 120.169 39.16C119.962 39.3917 119.708 39.5757 119.406 39.712C119.11 39.8438 118.773 39.9097 118.396 39.9097C118.02 39.9097 117.68 39.8438 117.379 39.712C117.082 39.5757 116.831 39.3917 116.623 39.16C116.416 38.9282 116.256 38.6579 116.143 38.3489C116.035 38.0399 115.981 37.7105 115.981 37.3606C115.981 37.0153 116.035 36.6881 116.143 36.3791C116.256 36.0702 116.416 35.7998 116.623 35.5681C116.831 35.3363 117.082 35.1523 117.379 35.016C117.68 34.8797 118.02 34.8115 118.396 34.8115Z" fill="white"/>
<path d="M121.629 34.9274H125.691V39.7938H124.808V35.6635H122.512V39.7938H121.629V34.9274Z" fill="white"/>
<path d="M126.783 34.9274H129.008C129.366 34.9274 129.658 34.9774 129.884 35.0773C130.11 35.1773 130.284 35.3023 130.406 35.4522C130.529 35.6021 130.611 35.7657 130.654 35.9429C130.701 36.1201 130.724 36.2837 130.724 36.4337C130.724 36.5836 130.701 36.7472 130.654 36.9244C130.611 37.0971 130.529 37.2584 130.406 37.4083C130.284 37.5583 130.11 37.6832 129.884 37.7832C129.658 37.8786 129.366 37.9263 129.008 37.9263H127.666V39.7938H126.783V34.9274ZM127.666 37.2311H128.958C129.057 37.2311 129.159 37.2175 129.262 37.1902C129.366 37.1629 129.46 37.1198 129.545 37.0607C129.634 36.9971 129.705 36.9153 129.757 36.8153C129.813 36.7108 129.841 36.5813 129.841 36.4268C129.841 36.2678 129.818 36.136 129.771 36.0315C129.724 35.927 129.66 35.8452 129.58 35.7862C129.5 35.7226 129.408 35.6794 129.305 35.6567C129.201 35.634 129.09 35.6226 128.973 35.6226H127.666V37.2311Z" fill="white"/>
<path d="M133.676 35.5067C133.408 35.5067 133.175 35.559 132.977 35.6635C132.784 35.768 132.626 35.9089 132.504 36.0861C132.382 36.2587 132.29 36.4564 132.229 36.679C132.172 36.9017 132.144 37.1289 132.144 37.3606C132.144 37.5923 132.172 37.8195 132.229 38.0422C132.29 38.2648 132.382 38.4647 132.504 38.642C132.626 38.8146 132.784 38.9532 132.977 39.0577C133.175 39.1622 133.408 39.2145 133.676 39.2145C133.945 39.2145 134.176 39.1622 134.369 39.0577C134.566 38.9532 134.727 38.8146 134.849 38.642C134.971 38.4647 135.061 38.2648 135.117 38.0422C135.179 37.8195 135.209 37.5923 135.209 37.3606C135.209 37.1289 135.179 36.9017 135.117 36.679C135.061 36.4564 134.971 36.2587 134.849 36.0861C134.727 35.9089 134.566 35.768 134.369 35.6635C134.176 35.559 133.945 35.5067 133.676 35.5067ZM133.676 34.8115C134.053 34.8115 134.39 34.8797 134.686 35.016C134.988 35.1523 135.242 35.3363 135.449 35.5681C135.656 35.7998 135.814 36.0702 135.923 36.3791C136.036 36.6881 136.092 37.0153 136.092 37.3606C136.092 37.7105 136.036 38.0399 135.923 38.3489C135.814 38.6579 135.656 38.9282 135.449 39.16C135.242 39.3917 134.988 39.5757 134.686 39.712C134.39 39.8438 134.053 39.9097 133.676 39.9097C133.3 39.9097 132.961 39.8438 132.659 39.712C132.363 39.5757 132.111 39.3917 131.904 39.16C131.697 38.9282 131.536 38.6579 131.423 38.3489C131.315 38.0399 131.261 37.7105 131.261 37.3606C131.261 37.0153 131.315 36.6881 131.423 36.3791C131.536 36.0702 131.697 35.7998 131.904 35.5681C132.111 35.3363 132.363 35.1523 132.659 35.016C132.961 34.8797 133.3 34.8115 133.676 34.8115Z" fill="white"/>
<path d="M136.931 34.9274H137.814V37.1425L140.06 34.9274H141.147L139.134 36.8699L141.289 39.7938H140.187L138.534 37.4697L137.814 38.158V39.7938H136.931V34.9274Z" fill="white"/>
<path d="M143.15 34.9274H144.09L146.032 39.7938H145.086L144.612 38.5056H142.599L142.126 39.7938H141.215L143.15 34.9274ZM142.84 37.8581H144.379L143.624 35.7657H143.602L142.84 37.8581Z" fill="white"/>
<path d="M146.067 34.9274H150.15V35.6635H148.546V39.7938H147.663V35.6635H146.067V34.9274Z" fill="white"/>
<path d="M152.119 34.9274H153.058L155 39.7938H154.054L153.581 38.5056H151.568L151.094 39.7938H150.183L152.119 34.9274ZM151.808 37.8581H153.348L152.592 35.7657H152.571L151.808 37.8581Z" fill="white"/>
<path d="M16.3308 10.9216V12.9867H10.536V16.0844H16.3308V33.1214L7.90201 25.3773L10.536 24.3448L0 22.2797L18.9648 39.3167L37.9296 22.2797L27.3936 24.3448L30.0276 25.3773L21.5988 33.1214V16.0844H27.3936V12.9867H21.5988V10.9216H16.3308Z" fill="white"/>
<path fill-rule="evenodd" clip-rule="evenodd" d="M18.9665 9.46522C20.6585 9.46522 22.0301 7.99835 22.0301 6.18887C22.0301 4.37938 20.6585 2.91251 18.9665 2.91251C17.2746 2.91251 15.903 4.37938 15.903 6.18887C15.903 7.99835 17.2746 9.46522 18.9665 9.46522ZM18.9665 11.6495C21.7864 11.6495 24.0724 9.20467 24.0724 6.18887C24.0724 3.17306 21.7864 0.728271 18.9665 0.728271C16.1466 0.728271 13.8606 3.17306 13.8606 6.18887C13.8606 9.20467 16.1466 11.6495 18.9665 11.6495Z" fill="white"/>
<path fill-rule="evenodd" clip-rule="evenodd" d="M0 5.26899C0 2.35901 2.35857 0 5.268 0H15.2772L12.9944 2.1076H5.268C3.52234 2.1076 2.1072 3.523 2.1072 5.26899V20.5491L0 18.4415V5.26899ZM32.6616 2.1076H24.9352L22.6524 0H32.6616C35.5711 0 37.9296 2.35901 37.9296 5.26899V18.4415L35.8224 20.5491V5.26899C35.8224 3.523 34.4073 2.1076 32.6616 2.1076ZM2.1072 26.8719V34.7754C2.1072 36.5214 3.52234 37.9368 5.26801 37.9368H12.1164L14.487 40.0443H5.26801C2.35857 40.0443 0 37.6853 0 34.7754V24.7643L2.1072 26.8719ZM35.8224 26.8719L37.9296 24.7643V34.7754C37.9296 37.6853 35.5711 40.0443 32.6616 40.0443H23.4426L25.8132 37.9368H32.6616C34.4073 37.9368 35.8224 36.5214 35.8224 34.7754V26.8719Z" fill="white"/>
</svg>
